<mxfile host="app.diagrams.net" modified="2024-05-31T07:47:32.343Z" agent="Mozilla/5.0 (Macintosh; Intel Mac OS X 10_15_7) AppleWebKit/537.36 (KHTML, like Gecko) Chrome/103.0.0.0 Safari/537.36" version="24.0.7" etag="bOhZMN-oTXq8a4jcgaQM" type="github">
  <diagram name="第 1 页" id="jMIt_A9apV74xbEOCI5m">
    <mxGraphModel>
      <root>
        <mxCell id="0" />
        <mxCell id="1" parent="0" />
      </root>
    </mxGraphModel>
  </diagram>
</mxfile>
